<svg xmlns="http://www.w3.org/2000/svg" viewBox="0 0 200 220">
<path d="M60,10 L80,25 L100,15 L120,25 L140,10 L165,45 L150,65 L140,55 L140,205 L60,205 L60,55 L50,65 L35,45 Z" fill="#1e2a1e" stroke="#7fae63" stroke-width="4"/>
<path d="M80,25 L100,45 L120,25 L112,20 L100,32 L88,20 Z" fill="#7fae63"/>
<path d="M35,45 L50,65 L45,72 L28,52 Z" fill="#7fae63"/>
<path d="M165,45 L150,65 L155,72 L172,52 Z" fill="#7fae63"/>
<rect x="60" y="195" width="80" height="10" fill="#7fae63"/>
<svg x="70" y="65" width="60" height="60" viewBox="0 0 120 120">
<circle cx="60" cy="60" r="52" fill="#1e2a1e" stroke="#7fae63" stroke-width="4"/>
<circle cx="60" cy="60" r="17" fill="#f2ead6"/>
<path d="M45 51 Q60 60 45 69 M75 51 Q60 60 75 69" stroke="#c1423a" stroke-width="2" fill="none"/>
<path d="M60 32 L34 78 L86 78 Z" fill="none" stroke="#7fae63" stroke-width="4" stroke-linejoin="round"/>
</svg>
</svg>
