<svg xmlns="http://www.w3.org/2000/svg" viewBox="0 0 200 220">
<path d="M60,10 L80,25 L100,15 L120,25 L140,10 L165,45 L150,65 L140,55 L140,205 L60,205 L60,55 L50,65 L35,45 Z" fill="#402a12" stroke="#e0a339" stroke-width="4"/>
<path d="M80,25 L100,45 L120,25 L112,20 L100,32 L88,20 Z" fill="#e0a339"/>
<path d="M35,45 L50,65 L45,72 L28,52 Z" fill="#e0a339"/>
<path d="M165,45 L150,65 L155,72 L172,52 Z" fill="#e0a339"/>
<rect x="60" y="195" width="80" height="10" fill="#e0a339"/>
<svg x="70" y="65" width="60" height="60" viewBox="0 0 120 120">
<circle cx="60" cy="60" r="52" fill="#402a12" stroke="#e0a339" stroke-width="4"/>
<circle cx="60" cy="60" r="18" fill="#f2ead6"/>
<path d="M44 50 Q60 60 44 70 M76 50 Q60 60 76 70" stroke="#c1423a" stroke-width="2" fill="none"/>
<path d="M40 40 L80 80 M46 34 L52 40 M74 80 L80 86" stroke="#e0a339" stroke-width="7" stroke-linecap="round"/>
</svg>
</svg>
